<svg xmlns="http://www.w3.org/2000/svg" version="1.1" xmlns:xlink="http://www.w3.org/1999/xlink" xmlns:svgjs="http://svgjs.dev/svgjs" width="1440" height="800" preserveAspectRatio="none" viewBox="0 0 1440 800"><g mask="url(&quot;#SvgjsMask15667&quot;)" fill="none"><rect width="1440" height="800" x="0" y="0" fill="rgba(255, 255, 255, 1)"></rect><rect width="337.12" height="337.12" clip-path="url(&quot;#SvgjsClipPath15668&quot;)" x="-134.29" y="-25.56" fill="url(&quot;#SvgjsPattern15669&quot;)" transform="rotate(358.03, 34.27, 143)"></rect><rect width="272.15999999999997" height="272.15999999999997" clip-path="url(&quot;#SvgjsClipPath15670&quot;)" x="474.4" y="182.03" fill="url(&quot;#SvgjsPattern15671&quot;)" transform="rotate(310.54, 610.48, 318.11)"></rect><path d="M1442.29 691.69L1437.99 679.63 1448.82 672.79 1444.51 660.72 1455.34 653.88 1451.03 641.82 1461.86 634.97M1449.86 694.3L1445.55 682.24 1456.38 675.39 1452.08 663.33 1462.9 656.49 1458.6 644.43 1469.42 637.58" stroke="rgba(0, 180, 216, 1)" stroke-width="1"></path><path d="M267.82 408.67a5.6 5.6 0 1 0-7.47 8.34 5.6 5.6 0 1 0 7.47-8.34zM257.14 420.59a5.6 5.6 0 1 0-7.46 8.35 5.6 5.6 0 1 0 7.46-8.35zM246.47 432.51a5.6 5.6 0 1 0-7.47 8.35 5.6 5.6 0 1 0 7.47-8.35zM235.8 444.44a5.6 5.6 0 1 0-7.47 8.34 5.6 5.6 0 1 0 7.47-8.34zM277.24 374.15a5.6 5.6 0 1 0-7.47 8.35 5.6 5.6 0 1 0 7.47-8.35zM266.56 386.08a5.6 5.6 0 1 0-7.47 8.34 5.6 5.6 0 1 0 7.47-8.34zM255.89 398a5.6 5.6 0 1 0-7.47 8.34 5.6 5.6 0 1 0 7.47-8.34zM245.22 409.92a5.6 5.6 0 1 0-7.47 8.35 5.6 5.6 0 1 0 7.47-8.35zM286.65 339.64a5.6 5.6 0 1 0-7.46 8.34 5.6 5.6 0 1 0 7.46-8.34zM275.98 351.56a5.6 5.6 0 1 0-7.47 8.35 5.6 5.6 0 1 0 7.47-8.35zM265.31 363.48a5.6 5.6 0 1 0-7.47 8.35 5.6 5.6 0 1 0 7.47-8.35zM254.64 375.41a5.6 5.6 0 1 0-7.47 8.34 5.6 5.6 0 1 0 7.47-8.34z" fill="rgba(3, 4, 94, 1)"></path><rect width="82.8" height="82.8" clip-path="url(&quot;#SvgjsClipPath15672&quot;)" x="1096.39" y="42.68" fill="url(&quot;#SvgjsPattern15673&quot;)" transform="rotate(4.57, 1137.79, 84.08)"></rect><rect width="432" height="432" clip-path="url(&quot;#SvgjsClipPath15674&quot;)" x="740.91" y="479.25" fill="url(&quot;#SvgjsPattern15675&quot;)" transform="rotate(260.91, 956.91, 695.25)"></rect><path d="M402.18 788.36L414.78 786.06 419.79 797.85 432.38 795.56 437.39 807.34 449.99 805.05 454.99 816.84M398.39 795.4L410.98 793.1 415.99 804.89 428.59 802.6 433.59 814.38 446.19 812.09 451.19 823.88M394.59 802.44L407.19 800.14 412.19 811.93 424.79 809.64 429.79 821.43 442.39 819.13 447.4 830.92" stroke="rgba(0, 180, 216, 1)" stroke-width="1" stroke-dasharray="3, 2"></path><rect width="180" height="180" clip-path="url(&quot;#SvgjsClipPath15676&quot;)" x="210.48" y="361.51" fill="url(&quot;#SvgjsPattern15677&quot;)" transform="rotate(86.62, 300.48, 451.51)"></rect><rect width="478.8" height="478.8" clip-path="url(&quot;#SvgjsClipPath15678&quot;)" x="463.16" y="36.3" fill="url(&quot;#SvgjsPattern15679&quot;)" transform="rotate(145.46, 702.56, 275.7)"></rect></g><defs><mask id="SvgjsMask15667"><rect width="1440" height="800" fill="#ffffff"></rect></mask><pattern x="0" y="0" width="12.04" height="12.04" patternUnits="userSpaceOnUse" id="SvgjsPattern15669"><path d="M0 12.04L6.02 0L12.04 12.04" stroke="rgba(0, 180, 216, 1)" fill="none"></path></pattern><clipPath id="SvgjsClipPath15668"><circle r="84.28" cx="34.27" cy="143"></circle></clipPath><pattern x="0" y="0" width="11.34" height="11.34" patternUnits="userSpaceOnUse" id="SvgjsPattern15671"><path d="M0 11.34L5.67 0L11.34 11.34" stroke="rgba(0, 180, 216, 1)" fill="none"></path></pattern><clipPath id="SvgjsClipPath15670"><circle r="68.03999999999999" cx="610.48" cy="318.11"></circle></clipPath><pattern x="0" y="0" width="8.28" height="8.28" patternUnits="userSpaceOnUse" id="SvgjsPattern15673"><path d="M4.14 1L4.14 7.279999999999999M1 4.14L7.279999999999999 4.14" stroke="rgba(202, 240, 248, 1)" fill="none" stroke-width="2.81"></path></pattern><clipPath id="SvgjsClipPath15672"><circle r="20.7" cx="1137.79" cy="84.08"></circle></clipPath><pattern x="0" y="0" width="6" height="6" patternUnits="userSpaceOnUse" id="SvgjsPattern15675"><path d="M0 6L3 0L6 6" stroke="rgba(0, 180, 216, 1)" fill="none"></path></pattern><clipPath id="SvgjsClipPath15674"><circle r="108" cx="956.91" cy="695.25"></circle></clipPath><pattern x="0" y="0" width="6" height="6" patternUnits="userSpaceOnUse" id="SvgjsPattern15677"><path d="M3 1L3 5M1 3L5 3" stroke="rgba(0, 180, 216, 1)" fill="none" stroke-width="1"></path></pattern><clipPath id="SvgjsClipPath15676"><circle r="45" cx="300.48" cy="451.51"></circle></clipPath><pattern x="0" y="0" width="6.3" height="6.3" patternUnits="userSpaceOnUse" id="SvgjsPattern15679"><path d="M3.15 1L3.15 5.3M1 3.15L5.3 3.15" stroke="rgba(202, 240, 248, 1)" fill="none" stroke-width="1.39"></path></pattern><clipPath id="SvgjsClipPath15678"><circle r="119.7" cx="702.56" cy="275.7"></circle></clipPath></defs></svg>